<svg xmlns="http://www.w3.org/2000/svg" version="1.1" style="font-family:Lato, 'Helvetica Neue', Helvetica, Arial, sans-serif;font-size:18px;background-color:white;text-rendering:optimizeLegibility;-webkit-font-smoothing:antialiased" width="850" height="600"><g class="HeaderView"><g transform="translate(774, 15) scale(0.29)"><svg width="210" height="120" viewBox="0 0 210 120" fill="none" xmlns="http://www.w3.org/2000/svg"><defs>
        <clipPath id="clip0">
            <rect width="210" height="120" fill="white"/>
        </clipPath>
    </defs>
</svg></g><a href="https://ourworldindata.org/grapher/whale-catch" target="_blank"><text font-size="25.20" x="15.0" y="35.2" fill="#555"><tspan x="15" y="35.160000000000004">Number of whales killed, World</tspan></text></a></g><g class="LineChart"><defs><clipPath id="boundsClip-19"><rect x="59.896" y="0" width="830" height="973"/></clipPath></defs><g class="AxisBoxView"><g class="HorizontalAxis"><text x="69.9" y="556.5" fill="#666" text-anchor="middle" font-size="16.2">1900</text><text x="169.4" y="556.5" fill="#666" text-anchor="middle" font-size="16.2">1920</text><text x="268.9" y="556.5" fill="#666" text-anchor="middle" font-size="16.2">1940</text><text x="368.3" y="556.5" fill="#666" text-anchor="middle" font-size="16.2">1960</text><text x="467.8" y="556.5" fill="#666" text-anchor="middle" font-size="16.2">1980</text><text x="567.3" y="556.5" fill="#666" text-anchor="middle" font-size="16.2">2000</text><text x="641.9" y="556.5" fill="#666" text-anchor="middle" font-size="16.2">2015</text></g><g class="VerticalAxis"><text x="64.90" y="535.3" fill="#666" dominant-baseline="middle" text-anchor="end" font-size="16.2">0</text><text x="64.90" y="478.7" fill="#666" dominant-baseline="middle" text-anchor="end" font-size="16.2">10,000</text><text x="64.90" y="422.1" fill="#666" dominant-baseline="middle" text-anchor="end" font-size="16.2">20,000</text><text x="64.90" y="365.5" fill="#666" dominant-baseline="middle" text-anchor="end" font-size="16.2">30,000</text><text x="64.90" y="308.9" fill="#666" dominant-baseline="middle" text-anchor="end" font-size="16.2">40,000</text><text x="64.90" y="252.3" fill="#666" dominant-baseline="middle" text-anchor="end" font-size="16.2">50,000</text><text x="64.90" y="195.6" fill="#666" dominant-baseline="middle" text-anchor="end" font-size="16.2">60,000</text><text x="64.90" y="139" fill="#666" dominant-baseline="middle" text-anchor="end" font-size="16.2">70,000</text><text x="64.90" y="82.4" fill="#666" dominant-baseline="middle" text-anchor="end" font-size="16.2">80,000</text></g><g class="AxisGridLines"><line x1="69.90" y1="535.3" x2="641.91" y2="535.3" stroke="#ccc"/><line x1="69.90" y1="478.7" x2="641.91" y2="478.7" stroke="#ddd" stroke-dasharray="3,2"/><line x1="69.90" y1="422.1" x2="641.91" y2="422.1" stroke="#ddd" stroke-dasharray="3,2"/><line x1="69.90" y1="365.5" x2="641.91" y2="365.5" stroke="#ddd" stroke-dasharray="3,2"/><line x1="69.90" y1="308.9" x2="641.91" y2="308.9" stroke="#ddd" stroke-dasharray="3,2"/><line x1="69.90" y1="252.3" x2="641.91" y2="252.3" stroke="#ddd" stroke-dasharray="3,2"/><line x1="69.90" y1="195.6" x2="641.91" y2="195.6" stroke="#ddd" stroke-dasharray="3,2"/><line x1="69.90" y1="139" x2="641.91" y2="139" stroke="#ddd" stroke-dasharray="3,2"/><line x1="69.90" y1="82.4" x2="641.91" y2="82.4" stroke="#ddd" stroke-dasharray="3,2"/></g></g><g clip-path="url(#boundsClip-19)"><g class="HeightedLegend"><g class="legendMark"><g class="indicator"><line x1="646.915" y1="535.3" x2="668.5059090909091" y2="535.3" stroke="#666" stroke-width="0.5"/><line x1="668.5059090909091" y1="535.3" x2="668.5059090909091" y2="528.55" stroke="#666" stroke-width="0.5"/><line x1="668.5059090909091" y1="528.55" x2="671.915" y2="528.55" stroke="#666" stroke-width="0.5"/></g><rect x="641.915" y="521.8" width="138.815" height="13.5" fill="#fff" opacity="0"/><text font-size="13.50" x="676.9" y="532.6" fill="#d26e66"><tspan x="676.915" y="532.5999999999999">Humpback whale</tspan></text></g><g class="legendMark"><g class="indicator"><line x1="646.915" y1="535.3" x2="666.6877272727272" y2="535.3" stroke="#666" stroke-width="0.5"/><line x1="666.6877272727272" y1="535.3" x2="666.6877272727272" y2="513.05" stroke="#666" stroke-width="0.5"/><line x1="666.6877272727272" y1="513.05" x2="671.915" y2="513.05" stroke="#666" stroke-width="0.5"/></g><rect x="641.915" y="506.29999999999995" width="101.28500000000001" height="13.5" fill="#fff" opacity="0"/><text font-size="13.50" x="676.9" y="517.1" fill="#3360a9"><tspan x="676.915" y="517.0999999999999">Blue whale</tspan></text></g><g class="legendMark"><g class="indicator"><line x1="646.915" y1="535.3" x2="664.8695454545455" y2="535.3" stroke="#666" stroke-width="0.5"/><line x1="664.8695454545455" y1="535.3" x2="664.8695454545455" y2="497.54999999999995" stroke="#666" stroke-width="0.5"/><line x1="664.8695454545455" y1="497.54999999999995" x2="671.915" y2="497.54999999999995" stroke="#666" stroke-width="0.5"/></g><rect x="641.915" y="490.79999999999995" width="193.085" height="13.5" fill="#fff" opacity="0"/><text font-size="13.50" x="676.9" y="501.6" fill="#34983f"><tspan x="676.915" y="501.59999999999997">Unspecified/Other species</tspan></text></g><g class="legendMark"><g class="indicator"><line x1="646.915" y1="535.3" x2="663.0513636363636" y2="535.3" stroke="#666" stroke-width="0.5"/><line x1="663.0513636363636" y1="535.3" x2="663.0513636363636" y2="482.04999999999995" stroke="#666" stroke-width="0.5"/><line x1="663.0513636363636" y1="482.04999999999995" x2="671.915" y2="482.04999999999995" stroke="#666" stroke-width="0.5"/></g><rect x="641.915" y="475.29999999999995" width="113.97500000000001" height="13.5" fill="#fff" opacity="0"/><text font-size="13.50" x="676.9" y="486.1" fill="#7ec7ce"><tspan x="676.915" y="486.09999999999997">Sperm whale</tspan></text></g><g class="legendMark"><g class="indicator"><line x1="646.915" y1="535.2" x2="661.2331818181818" y2="535.2" stroke="#666" stroke-width="0.5"/><line x1="661.2331818181818" y1="535.2" x2="661.2331818181818" y2="466.54999999999995" stroke="#666" stroke-width="0.5"/><line x1="661.2331818181818" y1="466.54999999999995" x2="671.915" y2="466.54999999999995" stroke="#666" stroke-width="0.5"/></g><rect x="641.915" y="459.79999999999995" width="118.83500000000001" height="13.5" fill="#fff" opacity="0"/><text font-size="13.50" x="676.9" y="470.6" fill="#ed6c2d"><tspan x="676.915" y="470.59999999999997">Bryde's whale</tspan></text></g><g class="legendMark"><g class="indicator"><line x1="646.915" y1="535" x2="659.415" y2="535" stroke="#666" stroke-width="0.5"/><line x1="659.415" y1="535" x2="659.415" y2="451.04999999999995" stroke="#666" stroke-width="0.5"/><line x1="659.415" y1="451.04999999999995" x2="671.915" y2="451.04999999999995" stroke="#666" stroke-width="0.5"/></g><rect x="641.915" y="444.29999999999995" width="105.74000000000001" height="13.5" fill="#fff" opacity="0"/><text font-size="13.50" x="676.9" y="455.1" fill="#932834"><tspan x="676.915" y="455.09999999999997">Right whale</tspan></text></g><g class="legendMark"><g class="indicator"><line x1="646.915" y1="534.8" x2="657.5968181818181" y2="534.8" stroke="#666" stroke-width="0.5"/><line x1="657.5968181818181" y1="534.8" x2="657.5968181818181" y2="435.54999999999995" stroke="#666" stroke-width="0.5"/><line x1="657.5968181818181" y1="435.54999999999995" x2="671.915" y2="435.54999999999995" stroke="#666" stroke-width="0.5"/></g><rect x="641.915" y="428.79999999999995" width="93.725" height="13.5" fill="#fff" opacity="0"/><text font-size="13.50" x="676.9" y="439.6" fill="#a652ba"><tspan x="676.915" y="439.59999999999997">Sei whale</tspan></text></g><g class="legendMark"><g class="indicator"><line x1="646.915" y1="534.6" x2="655.7786363636363" y2="534.6" stroke="#666" stroke-width="0.5"/><line x1="655.7786363636363" y1="534.6" x2="655.7786363636363" y2="420.04999999999995" stroke="#666" stroke-width="0.5"/><line x1="655.7786363636363" y1="420.04999999999995" x2="671.915" y2="420.04999999999995" stroke="#666" stroke-width="0.5"/></g><rect x="641.915" y="413.29999999999995" width="103.44500000000001" height="13.5" fill="#fff" opacity="0"/><text font-size="13.50" x="676.9" y="424.1" fill="#818282"><tspan x="676.915" y="424.09999999999997">Gray whale</tspan></text></g><g class="legendMark"><g class="indicator"><line x1="646.915" y1="534.3" x2="653.9604545454545" y2="534.3" stroke="#666" stroke-width="0.5"/><line x1="653.9604545454545" y1="534.3" x2="653.9604545454545" y2="404.54999999999995" stroke="#666" stroke-width="0.5"/><line x1="653.9604545454545" y1="404.54999999999995" x2="671.915" y2="404.54999999999995" stroke="#666" stroke-width="0.5"/></g><rect x="641.915" y="397.79999999999995" width="92.915" height="13.5" fill="#fff" opacity="0"/><text font-size="13.50" x="676.9" y="408.6" fill="#9ecc8a"><tspan x="676.915" y="408.59999999999997">Fin whale</tspan></text></g><g class="legendMark"><g class="indicator"><line x1="646.915" y1="528.2" x2="652.1422727272727" y2="528.2" stroke="#666" stroke-width="0.5"/><line x1="652.1422727272727" y1="528.2" x2="652.1422727272727" y2="389.04999999999995" stroke="#666" stroke-width="0.5"/><line x1="652.1422727272727" y1="389.04999999999995" x2="671.915" y2="389.04999999999995" stroke="#666" stroke-width="0.5"/></g><rect x="641.915" y="382.29999999999995" width="110.19500000000001" height="13.5" fill="#fff" opacity="0"/><text font-size="13.50" x="676.9" y="393.1" fill="#ffd53e"><tspan x="676.915" y="393.09999999999997">Minke whale</tspan></text></g><g class="legendMark"><g class="indicator"><line x1="646.915" y1="525.6" x2="650.3240909090908" y2="525.6" stroke="#666" stroke-width="0.5"/><line x1="650.3240909090908" y1="525.6" x2="650.3240909090908" y2="373.54999999999995" stroke="#666" stroke-width="0.5"/><line x1="650.3240909090908" y1="373.54999999999995" x2="671.915" y2="373.54999999999995" stroke="#666" stroke-width="0.5"/></g><rect x="641.915" y="366.79999999999995" width="138.815" height="13.5" fill="#fff" opacity="0"/><text font-size="13.50" x="676.9" y="377.6" fill="#ca2628"><tspan x="676.915" y="377.59999999999997">All whale species</tspan></text></g></g><g class="Lines"><rect x="70" y="70" width="572" height="465" fill="rgba(255,255,255,0)" opacity="0"/><g class="key-World_0"><path stroke="#ca2628" stroke-linecap="round" d="M70 526L75 523L80 519L85 516L90 510L95 508L100 509L105 496L110 484L115 468L120 438L125 409L130 393L135 392L140 398L145 419L150 464L155 485L159 477L164 473L169 454L174 474L179 435L184 442L189 420L194 380L199 384L204 390L209 361L214 316L219 261L224 463L229 375L234 359L239 313L244 312L249 254L254 173L259 259L264 301L269 408L274 473L279 479L284 473L289 482L294 429L299 345L304 287L309 267L314 257L319 254L324 179L329 256L334 240L339 181L344 183L348 196L353 151L358 132L363 107L368 86L373 113L378 157L383 100L388 70L393 129L398 136L403 172L408 214L413 200L418 235L423 237L428 299L433 299L438 291L443 337L448 358L453 395L458 411L463 434L468 454L473 458L478 464L483 472L488 486L493 490L498 499L503 527L508 533L513 533L518 533L523 534L528 533L533 532L538 532L542 531L547 530L552 529L557 529L562 529L567 528L572 527L577 526L582 525L587 526L592 522L597 525L602 524L607 524L612 525L617 527L622 527L627 528L632 526L637 527L642 526" fill="none" stroke-width="1.5"/></g><g class="key-World_1"><path stroke="#ed6c2d" stroke-linecap="round" d="M70 535L75 535L80 535L85 535L90 535L95 535L100 535L105 535L110 535L115 535L120 535L125 535L130 534L135 535L140 535L145 535L150 535L155 535L159 535L164 535L169 535L174 535L179 535L184 535L189 535L194 535L199 535L204 535L209 535L214 535L219 535L224 535L229 535L234 535L239 535L244 535L249 535L254 535L259 535L264 535L269 535L274 535L279 535L284 535L289 535L294 535L299 535L304 534L309 533L314 534L319 533L324 534L329 533L334 535L339 535L344 535L348 535L353 535L358 535L363 535L368 535L373 535L378 534L383 535L388 531L393 533L398 534L403 535L408 534L413 535L418 535L423 531L428 535L433 533L438 529L443 528L448 526L453 528L458 531L463 529L468 530L473 532L478 531L483 530L488 532L493 533L498 534L503 534L508 535L513 535L518 535L523 535L528 535L533 535L538 535L542 535L547 535L552 535L557 535L562 535L567 535L572 535L577 535L582 535L587 535L592 535L597 535L602 535L607 535L612 535L617 535L622 535L627 535L632 535L637 535L642 535" fill="none" stroke-width="1.5"/></g><g class="key-World_10"><path stroke="#7ec7ce" stroke-linecap="round" d="M70 535L75 535L80 535L85 534L90 535L95 535L100 535L105 535L110 535L115 535L120 535L125 534L130 532L135 531L140 529L145 529L150 529L155 533L159 530L164 529L169 531L174 531L179 529L184 530L189 529L194 526L199 526L204 526L209 523L214 522L219 526L224 532L229 530L234 524L239 523L244 522L249 503L254 493L259 504L264 508L269 514L274 507L279 508L284 504L289 521L294 523L299 509L304 483L309 472L314 492L319 477L324 418L329 487L334 478L339 434L344 441L348 444L353 417L358 419L363 427L368 419L373 407L378 397L383 337L388 345L393 360L398 331L403 361L408 375L413 352L418 373L423 371L428 420L433 424L438 406L443 426L448 453L453 463L458 476L463 510L468 524L473 527L478 532L483 533L488 533L493 533L498 534L503 534L508 535L513 535L518 535L523 535L528 535L533 535L538 535L542 535L547 535L552 535L557 535L562 535L567 535L572 535L577 535L582 535L587 535L592 535L597 535L602 535L607 535L612 535L617 535L622 535L627 535L632 535L637 535L642 535" fill="none" stroke-width="1.5"/></g><g class="key-World_2"><path stroke="#818282" stroke-linecap="round" d="M70 535L75 535L80 535L85 535L90 535L95 535L100 535L105 535L110 535L115 535L120 535L125 535L130 534L135 535L140 534L145 535L150 535L155 535L159 535L164 535L169 535L174 535L179 535L184 535L189 535L194 535L199 535L204 535L209 535L214 535L219 535L224 535L229 535L234 535L239 534L244 535L249 534L254 535L259 535L264 535L269 535L274 535L279 535L284 535L289 535L294 535L299 535L304 535L309 535L314 535L319 535L324 535L329 535L334 535L339 535L344 535L348 535L353 535L358 535L363 535L368 535L373 535L378 535L383 535L388 535L393 535L398 535L403 535L408 535L413 535L418 535L423 535L428 535L433 535L438 535L443 535L448 535L453 535L458 535L463 535L468 535L473 535L478 535L483 535L488 535L493 535L498 535L503 535L508 535L513 535L518 535L523 535L528 535L533 535L538 535L542 535L547 535L552 535L557 535L562 535L567 535L572 535L577 535L582 535L587 535L592 535L597 535L602 535L607 535L612 535L617 535L622 535L627 535L632 535L637 535L642 535" fill="none" stroke-width="1.5"/></g><g class="key-World_3"><path stroke="#ffd53e" stroke-linecap="round" d="M70 535L75 535L80 535L85 535L90 535L95 535L100 535L105 535L110 535L115 535L120 535L125 535L130 535L135 535L140 535L145 535L150 535L155 535L159 535L164 535L169 535L174 535L179 535L184 535L189 535L194 535L199 535L204 535L209 535L214 535L219 535L224 534L229 533L234 532L239 531L244 530L249 529L254 528L259 527L264 530L269 531L274 522L279 521L284 525L289 526L294 525L299 524L304 520L309 513L314 512L319 522L324 517L329 513L334 519L339 513L344 508L348 511L353 510L358 505L363 514L368 513L373 514L378 513L383 512L388 514L393 516L398 515L403 511L408 510L413 511L418 509L423 490L428 473L433 465L438 470L443 475L448 463L453 481L458 482L463 471L468 475L473 472L478 475L483 481L488 494L493 496L498 503L503 530L508 534L513 533L518 533L523 534L528 533L533 532L538 532L542 531L547 530L552 529L557 529L562 529L567 529L572 528L577 528L582 527L587 528L592 524L597 527L602 526L607 526L612 527L617 530L622 529L627 530L632 529L637 530L642 528" fill="none" stroke-width="1.5"/></g><g class="key-World_4"><path stroke="#a652ba" stroke-linecap="round" d="M70 535L75 535L80 535L85 535L90 534L95 534L100 533L105 533L110 530L115 529L120 531L125 532L130 532L135 526L140 530L145 531L150 532L155 531L159 529L164 529L169 529L174 531L179 531L184 529L189 526L194 528L199 523L204 523L209 524L214 529L219 530L224 532L229 533L234 533L239 531L244 531L249 528L254 530L259 531L264 530L269 532L274 531L279 533L284 532L289 530L294 534L299 530L304 528L309 527L314 522L319 526L324 522L329 519L334 521L339 524L344 525L348 518L353 509L358 509L363 498L368 492L373 489L378 483L383 458L388 390L393 396L398 414L403 413L408 441L413 444L418 460L423 475L428 496L433 496L438 503L443 519L448 525L453 531L458 534L463 534L468 535L473 535L478 535L483 535L488 535L493 535L498 535L503 535L508 535L513 535L518 535L523 535L528 535L533 535L538 535L542 535L547 535L552 535L557 535L562 535L567 535L572 535L577 535L582 535L587 535L592 535L597 535L602 535L607 535L612 535L617 535L622 535L627 535L632 535L637 535L642 535" fill="none" stroke-width="1.5"/></g><g class="key-World_5"><path stroke="#34983f" stroke-linecap="round" d="M70 532L75 530L80 526L85 530L90 532L95 530L100 527L105 520L110 527L115 529L120 524L125 527L130 531L135 534L140 535L145 535L150 532L155 535L159 535L164 535L169 535L174 535L179 535L184 535L189 535L194 535L199 535L204 534L209 535L214 535L219 534L224 535L229 535L234 535L239 531L244 532L249 532L254 535L259 534L264 524L269 535L274 535L279 535L284 535L289 535L294 535L299 535L304 535L309 535L314 535L319 535L324 535L329 535L334 535L339 535L344 535L348 535L353 535L358 535L363 535L368 535L373 535L378 535L383 535L388 535L393 535L398 535L403 535L408 535L413 535L418 535L423 535L428 535L433 535L438 535L443 535L448 535L453 535L458 535L463 535L468 535L473 535L478 535L483 535L488 535L493 535L498 535L503 535L508 535L513 535L518 535L523 535L528 535L533 535L538 535L542 535L547 535L552 535L557 535L562 535L567 535L572 535L577 535L582 535L587 535L592 535L597 535L602 535L607 535L612 535L617 535L622 535L627 535L632 535L637 535L642 535" fill="none" stroke-width="1.5"/></g><g class="key-World_6"><path stroke="#3360a9" stroke-linecap="round" d="M70 533L75 534L80 535L85 533L90 530L95 529L100 532L105 533L110 531L115 532L120 531L125 525L130 517L135 516L140 503L145 502L150 509L155 516L159 522L164 523L169 517L174 509L179 496L184 506L189 496L194 498L199 484L204 476L209 451L214 427L219 361L224 497L229 427L234 436L239 441L244 433L249 452L254 449L259 455L264 470L269 507L274 535L279 535L284 533L289 529L294 515L299 483L304 496L309 491L314 499L319 495L324 505L329 512L334 518L339 520L344 525L348 525L353 524L358 528L363 529L368 525L373 528L378 525L383 523L388 515L393 525L398 531L403 532L408 531L413 530L418 531L423 532L428 535L433 535L438 535L443 535L448 535L453 535L458 535L463 535L468 535L473 535L478 535L483 535L488 535L493 535L498 535L503 535L508 535L513 535L518 535L523 535L528 535L533 535L538 535L542 535L547 535L552 535L557 535L562 535L567 535L572 535L577 535L582 535L587 535L592 535L597 535L602 535L607 535L612 535L617 535L622 535L627 535L632 535L637 535L642 535" fill="none" stroke-width="1.5"/></g><g class="key-World_7"><path stroke="#9ecc8a" stroke-linecap="round" d="M70 533L75 532L80 532L85 530L90 524L95 524L100 528L105 527L110 525L115 522L120 521L125 509L130 494L135 492L140 493L145 491L150 510L155 517L159 507L164 506L169 492L174 514L179 500L184 498L189 487L194 457L199 475L204 488L209 480L214 452L219 462L224 511L229 498L234 483L239 454L244 472L249 439L254 357L259 408L264 419L269 484L274 521L279 525L284 523L289 519L294 477L299 443L304 404L309 411L314 409L319 410L324 388L329 389L334 363L339 357L344 363L348 359L353 360L358 362L363 374L368 364L373 368L378 419L383 434L388 463L393 493L398 495L403 503L408 500L413 506L418 506L423 514L428 517L433 523L438 525L443 531L448 532L453 533L458 530L463 531L468 533L473 533L478 533L483 534L488 534L493 534L498 535L503 535L508 535L513 535L518 535L523 535L528 535L533 535L538 535L542 535L547 535L552 535L557 535L562 535L567 535L572 535L577 535L582 535L587 535L592 535L597 535L602 535L607 535L612 535L617 534L622 535L627 535L632 535L637 535L642 534" fill="none" stroke-width="1.5"/></g><g class="key-World_8"><path stroke="#d26e66" stroke-linecap="round" d="M70 535L75 534L80 533L85 531L90 530L95 532L100 531L105 526L110 513L115 499L120 473L125 461L130 466L135 471L140 486L145 510L150 529L155 532L159 532L164 529L169 528L174 531L179 520L184 521L189 524L194 514L199 518L204 521L209 524L214 527L219 525L224 532L229 531L234 527L239 515L244 505L249 484L254 493L259 513L264 532L269 517L274 534L279 534L284 534L289 533L294 533L299 534L304 534L309 532L314 501L319 503L324 508L329 515L334 518L339 511L344 499L348 517L353 506L358 487L363 443L368 449L373 492L378 503L383 515L388 526L393 520L398 529L403 529L408 535L413 535L418 535L423 535L428 535L433 535L438 535L443 535L448 535L453 535L458 535L463 535L468 535L473 535L478 535L483 535L488 535L493 535L498 535L503 535L508 535L513 535L518 535L523 535L528 535L533 535L538 535L542 535L547 535L552 535L557 535L562 535L567 535L572 535L577 535L582 535L587 535L592 535L597 535L602 535L607 535L612 535L617 535L622 535L627 535L632 535L637 535L642 535" fill="none" stroke-width="1.5"/></g><g class="key-World_9"><path stroke="#932834" stroke-linecap="round" d="M70 535L75 535L80 535L85 535L90 535L95 535L100 535L105 535L110 535L115 535L120 535L125 535L130 535L135 535L140 535L145 535L150 535L155 535L159 535L164 535L169 535L174 535L179 535L184 535L189 535L194 535L199 535L204 535L209 535L214 535L219 535L224 535L229 535L234 535L239 535L244 535L249 535L254 535L259 535L264 535L269 535L274 535L279 535L284 535L289 535L294 535L299 535L304 535L309 535L314 535L319 535L324 535L329 535L334 535L339 535L344 535L348 535L353 535L358 535L363 535L368 535L373 528L378 531L383 533L388 535L393 533L398 534L403 535L408 535L413 535L418 535L423 535L428 535L433 535L438 535L443 535L448 535L453 535L458 535L463 535L468 535L473 535L478 535L483 535L488 535L493 535L498 535L503 535L508 535L513 535L518 535L523 535L528 535L533 535L538 535L542 535L547 535L552 535L557 535L562 535L567 535L572 535L577 535L582 535L587 535L592 535L597 535L602 535L607 535L612 535L617 535L622 535L627 535L632 535L637 535L642 535" fill="none" stroke-width="1.5"/></g></g></g></g><g class="SourcesFooter" style="fill:#777"><g class="clickable" style="fill:#777"><text font-size="12.60" x="15.0" y="581.6"><tspan x="15" y="581.58">Source: International Whaling Commission (IWC); Rocha et al. (2014)</tspan></text></g><text font-size="12.60" x="796.4" y="581.6"><tspan x="796.444" y="581.58"><a style="fill: #777;" class="cclogo" href="http://creativecommons.org/licenses/by/4.0/deed.en_US" target="_blank">CC BY</a></tspan></text></g></svg>